{
  "accessors": [
    {
      "bufferView": 2,
      "componentType": 5126,
      "count": 5630,
      "max": [
        -87.41010284423828,
        11.55210018157959,
        170.74899291992188
      ],
      "min": [
        -113.0907974243164,
        -11.611100196838379,
        118.6978988647461
      ],
      "type": "VEC3"
    },
    {
      "bufferView": 2,
      "byteOffset": 67560,
      "componentType": 5126,
      "count": 5630,
      "max": [
        0.9999915361404419,
        0.999992847442627,
        0.9988536834716797
      ],
      "min": [
        -0.9999778270721436,
        -0.9999704360961914,
        -0.9461500644683838
      ],
      "type": "VEC3"
    },
    {
      "bufferView": 3,
      "componentType": 5126,
      "count": 5630,
      "max": [
        0.9338976740837097,
        0.997802734375,
        0.999951958656311,
        1.0
      ],
      "min": [
        -0.9999569058418274,
        -0.9997888207435608,
        -0.9999319911003113,
        1.0
      ],
      "type": "VEC4"
    },
    {
      "bufferView": 1,
      "componentType": 5126,
      "count": 5630,
      "max": [
        0.9918000102043152,
        0.983299970626831
      ],
      "min": [
        0.326200008392334,
        0.48179998993873596
      ],
      "type": "VEC2"
    },
    {
      "bufferView": 0,
      "componentType": 5125,
      "count": 32286,
      "type": "SCALAR"
    },
    {
      "bufferView": 2,
      "byteOffset": 135120,
      "componentType": 5126,
      "count": 5630,
      "max": [
        12.589900016784668,
        11.55210018157959,
        170.74899291992188
      ],
      "min": [
        -13.090800285339355,
        -11.611100196838379,
        118.6978988647461
      ],
      "type": "VEC3"
    },
    {
      "bufferView": 2,
      "byteOffset": 202680,
      "componentType": 5126,
      "count": 5630,
      "max": [
        0.9999915361404419,
        0.999992847442627,
        0.9988536834716797
      ],
      "min": [
        -0.9999778270721436,
        -0.9999704360961914,
        -0.9461500644683838
      ],
      "type": "VEC3"
    },
    {
      "bufferView": 3,
      "byteOffset": 90080,
      "componentType": 5126,
      "count": 5630,
      "max": [
        0.9338976740837097,
        0.997802734375,
        0.999951958656311,
        1.0
      ],
      "min": [
        -0.9999568462371826,
        -0.9997888207435608,
        -0.9999319911003113,
        1.0
      ],
      "type": "VEC4"
    },
    {
      "bufferView": 1,
      "byteOffset": 45040,
      "componentType": 5126,
      "count": 5630,
      "max": [
        0.9918000102043152,
        0.983299970626831
      ],
      "min": [
        0.326200008392334,
        0.48179998993873596
      ],
      "type": "VEC2"
    },
    {
      "bufferView": 0,
      "byteOffset": 129144,
      "componentType": 5125,
      "count": 32286,
      "type": "SCALAR"
    },
    {
      "bufferView": 2,
      "byteOffset": 270240,
      "componentType": 5126,
      "count": 5254,
      "max": [
        21.5846004486084,
        15.959500312805176,
        154.1383056640625
      ],
      "min": [
        -23.277700424194336,
        -14.955499649047852,
        64.38089752197266
      ],
      "type": "VEC3"
    },
    {
      "bufferView": 2,
      "byteOffset": 333288,
      "componentType": 5126,
      "count": 5254,
      "max": [
        0.9996659159660339,
        0.9999366998672485,
        0.9886331558227539
      ],
      "min": [
        -0.9993237257003784,
        -0.9999501705169678,
        -0.9997557997703552
      ],
      "type": "VEC3"
    },
    {
      "bufferView": 3,
      "byteOffset": 180160,
      "componentType": 5126,
      "count": 5254,
      "max": [
        1.0,
        0.9999397397041321,
        0.9855985641479492,
        1.0
      ],
      "min": [
        -0.9999762773513794,
        -0.9993817210197449,
        -0.572982668876648,
        1.0
      ],
      "type": "VEC4"
    },
    {
      "bufferView": 1,
      "byteOffset": 90080,
      "componentType": 5126,
      "count": 5254,
      "max": [
        0.9666000008583069,
        0.948199987411499
      ],
      "min": [
        0.031599998474121094,
        0.03060000017285347
      ],
      "type": "VEC2"
    },
    {
      "bufferView": 0,
      "byteOffset": 258288,
      "componentType": 5125,
      "count": 30171,
      "type": "SCALAR"
    },
    {
      "bufferView": 2,
      "byteOffset": 396336,
      "componentType": 5126,
      "count": 25659,
      "max": [
        59.122798919677734,
        12.52929973602295,
        169.8170928955078
      ],
      "min": [
        -59.122798919677734,
        -13.198800086975098,
        -0.054499998688697815
      ],
      "type": "VEC3"
    },
    {
      "bufferView": 2,
      "byteOffset": 704244,
      "componentType": 5126,
      "count": 25659,
      "max": [
        0.999844491481781,
        0.9999973773956299,
        0.9998655319213867
      ],
      "min": [
        -0.999844491481781,
        -0.9999960660934448,
        -0.9999978542327881
      ],
      "type": "VEC3"
    },
    {
      "bufferView": 3,
      "byteOffset": 264224,
      "componentType": 5126,
      "count": 25659,
      "max": [
        0.9999197721481323,
        0.9999938607215881,
        0.9998761415481567,
        1.0
      ],
      "min": [
        -1.0,
        -0.9999938607215881,
        -0.9990368485450745,
        -1.0
      ],
      "type": "VEC4"
    },
    {
      "bufferView": 1,
      "byteOffset": 132112,
      "componentType": 5126,
      "count": 25659,
      "max": [
        0.9954000115394592,
        0.9933000206947327
      ],
      "min": [
        0.0034000000450760126,
        0.01679999940097332
      ],
      "type": "VEC2"
    },
    {
      "bufferView": 0,
      "byteOffset": 378972,
      "componentType": 5125,
      "count": 145032,
      "type": "SCALAR"
    },
    {
      "bufferView": 2,
      "byteOffset": 1012152,
      "componentType": 5126,
      "count": 25659,
      "max": [
        -75.17859649658203,
        12.522299766540527,
        169.8188018798828
      ],
      "min": [
        -124.62419891357422,
        -13.196000099182129,
        -0.054099999368190765
      ],
      "type": "VEC3"
    },
    {
      "bufferView": 2,
      "byteOffset": 1320060,
      "componentType": 5126,
      "count": 25659,
      "max": [
        0.9999940395355225,
        0.9999991655349731,
        0.9998688697814941
      ],
      "min": [
        -0.9999653100967407,
        -0.9999923706054688,
        -0.9999891519546509
      ],
      "type": "VEC3"
    },
    {
      "bufferView": 3,
      "byteOffset": 674768,
      "componentType": 5126,
      "count": 25659,
      "max": [
        0.9999983310699463,
        0.9999812245368958,
        0.9994080662727356,
        1.0
      ],
      "min": [
        -1.0,
        -0.9999821186065674,
        -0.9995707273483276,
        -1.0
      ],
      "type": "VEC4"
    },
    {
      "bufferView": 1,
      "byteOffset": 337384,
      "componentType": 5126,
      "count": 25659,
      "max": [
        0.9954000115394592,
        0.9933000206947327
      ],
      "min": [
        0.0034000000450760126,
        0.01679999940097332
      ],
      "type": "VEC2"
    },
    {
      "bufferView": 0,
      "byteOffset": 959100,
      "componentType": 5125,
      "count": 145032,
      "type": "SCALAR"
    },
    {
      "bufferView": 2,
      "byteOffset": 1627968,
      "componentType": 5126,
      "count": 5385,
      "max": [
        -78.41539764404297,
        15.959500312805176,
        154.1383056640625
      ],
      "min": [
        -119.97090148925781,
        -14.955499649047852,
        64.38089752197266
      ],
      "type": "VEC3"
    },
    {
      "bufferView": 2,
      "byteOffset": 1692588,
      "componentType": 5126,
      "count": 5385,
      "max": [
        0.9996659159660339,
        0.9999366998672485,
        0.9886331558227539
      ],
      "min": [
        -0.9996867775917053,
        -0.999945878982544,
        -0.9997557997703552
      ],
      "type": "VEC3"
    },
    {
      "bufferView": 3,
      "byteOffset": 1085312,
      "componentType": 5126,
      "count": 5385,
      "max": [
        1.0,
        0.9999397397041321,
        0.9129830598831177,
        1.0
      ],
      "min": [
        -0.9999578595161438,
        -0.9999615550041199,
        -0.572982668876648,
        1.0
      ],
      "type": "VEC4"
    },
    {
      "bufferView": 1,
      "byteOffset": 542656,
      "componentType": 5126,
      "count": 5385,
      "max": [
        0.9666000008583069,
        0.948199987411499
      ],
      "min": [
        0.031599998474121094,
        0.03060000017285347
      ],
      "type": "VEC2"
    },
    {
      "bufferView": 0,
      "byteOffset": 1539228,
      "componentType": 5125,
      "count": 30549,
      "type": "SCALAR"
    },
    {
      "bufferView": 2,
      "byteOffset": 1757208,
      "componentType": 5126,
      "count": 2233,
      "max": [
        -112.71430206298828,
        4.914700031280518,
        83.54460144042969
      ],
      "min": [
        -125.65889739990234,
        -19.209400177001953,
        59.75019836425781
      ],
      "type": "VEC3"
    },
    {
      "bufferView": 2,
      "byteOffset": 1784004,
      "componentType": 5126,
      "count": 2233,
      "max": [
        0.999997615814209,
        0.9990286231040955,
        0.9982525110244751
      ],
      "min": [
        -0.9980389475822449,
        -0.9984521269798279,
        -0.9989253878593445
      ],
      "type": "VEC3"
    },
    {
      "bufferView": 1,
      "byteOffset": 585736,
      "componentType": 5126,
      "count": 2233,
      "max": [
        0.9922000169754028,
        0.9858999848365784
      ],
      "min": [
        0.0020000000949949026,
        0.002400000113993883
      ],
      "type": "VEC2"
    },
    {
      "bufferView": 0,
      "byteOffset": 1661424,
      "componentType": 5125,
      "count": 10632,
      "type": "SCALAR"
    },
    {
      "bufferView": 2,
      "byteOffset": 1810800,
      "componentType": 5126,
      "count": 8744,
      "max": [
        4.477399826049805,
        -6.153600215911865,
        159.90069580078125
      ],
      "min": [
        -4.48199987411499,
        -8.874600410461426,
        157.14100646972656
      ],
      "type": "VEC3"
    },
    {
      "bufferView": 2,
      "byteOffset": 1915728,
      "componentType": 5126,
      "count": 8744,
      "max": [
        0.9991343021392822,
        0.9997357726097107,
        0.9996917843818665
      ],
      "min": [
        -0.9991343021392822,
        -0.9999948740005493,
        -0.9998780488967896
      ],
      "type": "VEC3"
    },
    {
      "bufferView": 1,
      "byteOffset": 603600,
      "componentType": 5126,
      "count": 8744,
      "max": [
        0.996999979019165,
        0.9972000122070313
      ],
      "min": [
        0.0142000000923872,
        0.0142000000923872
      ],
      "type": "VEC2"
    },
    {
      "bufferView": 0,
      "byteOffset": 1703952,
      "componentType": 5125,
      "count": 50688,
      "type": "SCALAR"
    }
  ],
  "asset": {
    "extras": {
      "author": "schmoldt.art (https://sketchfab.com/schmoldt.art)",
      "license": "CC-BY-4.0 (http://creativecommons.org/licenses/by/4.0/)",
      "source": "https://sketchfab.com/3d-models/crazy-ex-gf-game-mesh-fdecbc5840eb4d2da3a871fb49fed9bd",
      "title": "crazy ex GF game mesh"
    },
    "generator": "Sketchfab-16.53.0",
    "version": "2.0"
  },
  "bufferViews": [
    {
      "buffer": 0,
      "byteLength": 1906704,
      "name": "floatBufferViews",
      "target": 34963
    },
    {
      "buffer": 0,
      "byteLength": 673552,
      "byteOffset": 1906704,
      "byteStride": 8,
      "name": "floatBufferViews",
      "target": 34962
    },
    {
      "buffer": 0,
      "byteLength": 2020656,
      "byteOffset": 2580256,
      "byteStride": 12,
      "name": "floatBufferViews",
      "target": 34962
    },
    {
      "buffer": 0,
      "byteLength": 1171472,
      "byteOffset": 4600912,
      "byteStride": 16,
      "name": "floatBufferViews",
      "target": 34962
    }
  ],
  "buffers": [
    {
      "byteLength": 5772384,
      "uri": "scene.bin"
    }
  ],
  "extensionsUsed": [
    "KHR_materials_specular"
  ],
  "images": [
    {
      "uri": "textures/11___Default_baseColor.png"
    },
    {
      "uri": "textures/11___Default_normal.png"
    },
    {
      "uri": "textures/BloodyHair_baseColor.png"
    },
    {
      "uri": "textures/BloodyHair_metallicRoughness.png"
    },
    {
      "uri": "textures/BloodySkirt_baseColor.jpeg"
    },
    {
      "uri": "textures/Bloodybody_baseColor.jpeg"
    },
    {
      "uri": "textures/Bloodybody_metallicRoughness.png"
    },
    {
      "uri": "textures/Bloodybody_normal.png"
    },
    {
      "uri": "textures/CasualBody_baseColor.jpeg"
    },
    {
      "uri": "textures/CasualBody_metallicRoughness.png"
    },
    {
      "uri": "textures/CasualBody_normal.png"
    },
    {
      "uri": "textures/CasualSkirt_baseColor.jpeg"
    }
  ],
  "materials": [
    {
      "alphaMode": "BLEND",
      "doubleSided": true,
      "extensions": {
        "KHR_materials_specular": {
          "specularColorFactor": [
            1.0,
            1.0,
            1.0
          ],
          "specularFactor": 1.0
        }
      },
      "name": "11___Default",
      "normalTexture": {
        "index": 1
      },
      "pbrMetallicRoughness": {
        "baseColorTexture": {
          "index": 0
        },
        "metallicFactor": 0.75,
        "roughnessFactor": 0.75
      }
    },
    {
      "alphaMode": "BLEND",
      "doubleSided": true,
      "extensions": {
        "KHR_materials_specular": {
          "specularColorFactor": [
            1.0,
            1.0,
            1.0
          ],
          "specularFactor": 1.0
        }
      },
      "name": "BloodyHair",
      "normalTexture": {
        "index": 1
      },
      "pbrMetallicRoughness": {
        "baseColorTexture": {
          "index": 2
        },
        "metallicFactor": 0.75,
        "metallicRoughnessTexture": {
          "index": 3
        },
        "roughnessFactor": 0.9
      }
    },
    {
      "doubleSided": true,
      "name": "BloodySkirt",
      "normalTexture": {
        "index": 1
      },
      "pbrMetallicRoughness": {
        "baseColorFactor": [
          0.625,
          0.625,
          0.625,
          1.0
        ],
        "baseColorTexture": {
          "index": 4
        },
        "metallicFactor": 0.0,
        "metallicRoughnessTexture": {
          "index": 3
        },
        "roughnessFactor": 0.9
      }
    },
    {
      "doubleSided": true,
      "name": "Bloodybody",
      "normalTexture": {
        "index": 7
      },
      "pbrMetallicRoughness": {
        "baseColorTexture": {
          "index": 5
        },
        "metallicFactor": 0.0,
        "metallicRoughnessTexture": {
          "index": 6
        }
      }
    },
    {
      "doubleSided": true,
      "name": "CasualBody",
      "normalTexture": {
        "index": 10
      },
      "pbrMetallicRoughness": {
        "baseColorTexture": {
          "index": 8
        },
        "metallicFactor": 0.0,
        "metallicRoughnessTexture": {
          "index": 9
        },
        "roughnessFactor": 0.75
      }
    },
    {
      "doubleSided": true,
      "name": "CasualSkirt",
      "normalTexture": {
        "index": 1
      },
      "pbrMetallicRoughness": {
        "baseColorFactor": [
          0.625,
          0.625,
          0.625,
          1.0
        ],
        "baseColorTexture": {
          "index": 11
        },
        "metallicFactor": 0.0,
        "roughnessFactor": 0.95
      }
    },
    {
      "doubleSided": true,
      "name": "grey",
      "pbrMetallicRoughness": {
        "baseColorFactor": [
          0.125,
          0.125,
          0.125,
          1.0
        ],
        "metallicFactor": 0.0
      }
    },
    {
      "doubleSided": true,
      "extensions": {
        "KHR_materials_specular": {
          "specularColorFactor": [
            1.0,
            1.0,
            1.0
          ],
          "specularFactor": 0.17523862929867975
        }
      },
      "name": "grey2",
      "pbrMetallicRoughness": {
        "baseColorFactor": [
          0.0,
          0.0,
          0.0,
          1.0
        ],
        "roughnessFactor": 0.0228572125172191
      }
    }
  ],
  "meshes": [
    {
      "name": "Object_0",
      "primitives": [
        {
          "attributes": {
            "NORMAL": 1,
            "POSITION": 0,
            "TANGENT": 2,
            "TEXCOORD_0": 3
          },
          "indices": 4,
          "material": 0,
          "mode": 4
        }
      ]
    },
    {
      "name": "Object_1",
      "primitives": [
        {
          "attributes": {
            "NORMAL": 6,
            "POSITION": 5,
            "TANGENT": 7,
            "TEXCOORD_0": 8
          },
          "indices": 9,
          "material": 1,
          "mode": 4
        }
      ]
    },
    {
      "name": "Object_2",
      "primitives": [
        {
          "attributes": {
            "NORMAL": 11,
            "POSITION": 10,
            "TANGENT": 12,
            "TEXCOORD_0": 13
          },
          "indices": 14,
          "material": 2,
          "mode": 4
        }
      ]
    },
    {
      "name": "Object_3",
      "primitives": [
        {
          "attributes": {
            "NORMAL": 16,
            "POSITION": 15,
            "TANGENT": 17,
            "TEXCOORD_0": 18
          },
          "indices": 19,
          "material": 3,
          "mode": 4
        }
      ]
    },
    {
      "name": "Object_4",
      "primitives": [
        {
          "attributes": {
            "NORMAL": 21,
            "POSITION": 20,
            "TANGENT": 22,
            "TEXCOORD_0": 23
          },
          "indices": 24,
          "material": 4,
          "mode": 4
        }
      ]
    },
    {
      "name": "Object_5",
      "primitives": [
        {
          "attributes": {
            "NORMAL": 26,
            "POSITION": 25,
            "TANGENT": 27,
            "TEXCOORD_0": 28
          },
          "indices": 29,
          "material": 5,
          "mode": 4
        }
      ]
    },
    {
      "name": "Object_6",
      "primitives": [
        {
          "attributes": {
            "NORMAL": 31,
            "POSITION": 30,
            "TEXCOORD_0": 32
          },
          "indices": 33,
          "material": 6,
          "mode": 4
        }
      ]
    },
    {
      "name": "Object_7",
      "primitives": [
        {
          "attributes": {
            "NORMAL": 35,
            "POSITION": 34,
            "TEXCOORD_0": 36
          },
          "indices": 37,
          "material": 7,
          "mode": 4
        }
      ]
    }
  ],
  "nodes": [
    {
      "children": [
        1
      ],
      "matrix": [
        1.0,
        0.0,
        0.0,
        0.0,
        0.0,
        2.220446049250313e-16,
        -1.0,
        0.0,
        0.0,
        1.0,
        2.220446049250313e-16,
        0.0,
        0.0,
        0.0,
        0.0,
        1.0
      ],
      "name": "Sketchfab_model"
    },
    {
      "children": [
        2,
        3,
        4,
        5,
        6,
        7,
        8,
        9
      ],
      "name": "CreepyBase.obj.cleaner.materialmerger.gles"
    },
    {
      "mesh": 0,
      "name": "Object_2"
    },
    {
      "mesh": 1,
      "name": "Object_3"
    },
    {
      "mesh": 2,
      "name": "Object_4"
    },
    {
      "mesh": 3,
      "name": "Object_5"
    },
    {
      "mesh": 4,
      "name": "Object_6"
    },
    {
      "mesh": 5,
      "name": "Object_7"
    },
    {
      "mesh": 6,
      "name": "Object_8"
    },
    {
      "mesh": 7,
      "name": "Object_9"
    }
  ],
  "samplers": [
    {
      "magFilter": 9729,
      "minFilter": 9987,
      "wrapS": 10497,
      "wrapT": 10497
    }
  ],
  "scene": 0,
  "scenes": [
    {
      "name": "Sketchfab_Scene",
      "nodes": [
        0
      ]
    }
  ],
  "textures": [
    {
      "sampler": 0,
      "source": 0
    },
    {
      "sampler": 0,
      "source": 1
    },
    {
      "sampler": 0,
      "source": 2
    },
    {
      "sampler": 0,
      "source": 3
    },
    {
      "sampler": 0,
      "source": 4
    },
    {
      "sampler": 0,
      "source": 5
    },
    {
      "sampler": 0,
      "source": 6
    },
    {
      "sampler": 0,
      "source": 7
    },
    {
      "sampler": 0,
      "source": 8
    },
    {
      "sampler": 0,
      "source": 9
    },
    {
      "sampler": 0,
      "source": 10
    },
    {
      "sampler": 0,
      "source": 11
    }
  ]
}
